<?xml version="1.0" standalone="no"?>
<!DOCTYPE svg PUBLIC "-//W3C//DTD SVG 20010904//EN"
 "http://www.w3.org/TR/2001/REC-SVG-20010904/DTD/svg10.dtd">
<svg version="1.0" xmlns="http://www.w3.org/2000/svg"
 width="512.000000pt" height="512.000000pt" viewBox="0 0 512.000000 512.000000"
 preserveAspectRatio="xMidYMid meet">
<metadata>
Created by potrace 1.11, written by Peter Selinger 2001-2013
</metadata>
<g transform="translate(0.000000,512.000000) scale(0.100000,-0.100000)"
fill="#000000" stroke="none">
<path d="M2903 4860 c-30 -18 -70 -64 -183 -211 -14 -17 -80 -102 -148 -188
-68 -86 -126 -169 -129 -185 -6 -28 -7 -28 -62 -23 -52 5 -132 21 -173 33 -12
4 -17 16 -16 43 0 44 -24 86 -61 105 -107 54 -360 67 -511 27 -83 -22 -252
-95 -258 -112 -2 -5 -10 -9 -18 -9 -8 0 -14 -4 -14 -8 0 -4 -13 -15 -29 -25
-51 -30 -153 -140 -206 -222 -116 -180 -155 -345 -157 -670 0 -115 8 -283 16
-335 3 -14 7 -45 10 -70 3 -25 8 -56 11 -70 3 -14 10 -50 16 -80 5 -30 12 -66
15 -80 8 -38 64 -228 81 -274 8 -23 24 -66 35 -96 52 -139 176 -371 294 -546
l122 -184 -316 -1 c-344 0 -370 -2 -450 -25 -131 -37 -226 -95 -327 -198 -84
-86 -127 -156 -168 -273 -39 -114 -46 -275 -16 -392 67 -262 274 -466 545
-538 16 -4 827 -9 1802 -10 1954 -4 1817 -8 1856 58 19 33 17 92 -6 129 -27
43 -64 50 -270 50 l-194 0 -55 55 c-119 120 -174 255 -174 425 1 171 56 305
174 425 l55 55 194 0 c156 0 200 3 227 16 87 41 80 180 -12 215 -13 5 -197 9
-419 9 l-395 0 75 107 c231 331 359 599 450 943 27 100 30 115 47 223 23 144
35 298 33 437 -2 234 -16 354 -56 480 -70 218 -238 416 -438 515 -30 14 -62
30 -71 35 -29 15 -164 49 -224 56 -137 17 -258 5 -407 -42 -43 -13 -89 -26
-103 -28 -14 -3 -34 -8 -45 -11 -11 -4 -20 -3 -20 0 0 4 49 69 109 145 124
157 139 182 135 228 -7 86 -99 136 -171 92z"/>
<path d="M4704 464 c-44 -21 -67 -66 -60 -116 9 -62 38 -93 98 -103 70 -12
138 45 138 115 0 39 -30 88 -65 104 -41 20 -71 20 -111 0z"/>
</g>
</svg>
